<?xml version="1.0" encoding="UTF-8"?><svg id="Layer_2" xmlns="http://www.w3.org/2000/svg" viewBox="0 0 1407.02 400.14"><defs><style>.cls-1{fill:#fff;}.cls-2{fill:#05d5fb;}.cls-3{fill:#f93646;}.cls-4{fill:#ffd109;}.cls-5{fill:#333;}.cls-6{fill:#06ef79;}</style></defs><g id="Layer_1-2"><rect class="cls-1" x="0" y="0" width="1407.02" height="400.14" rx="104.8" ry="104.8"/><g><g><path class="cls-4" d="M316.47,190.5l-50.41-29.09-41.46,40.08,37.89,36.63,53.98-31.16c2.97-1.71,4.75-4.79,4.75-8.22s-1.78-6.51-4.75-8.23Z"/><polygon class="cls-6" points="257.5 156.47 202.03 124.45 80.47 62.15 217.77 194.88 257.5 156.47"/><polygon class="cls-3" points="82.49 338.86 202.24 272.89 253.93 243.05 217.77 208.09 82.49 338.86"/><polygon class="cls-2" points="72.36 67.52 72.23 335.57 210.94 201.48 72.36 67.52"/></g><g><path class="cls-5" d="M419.08,249.6h21v47.63c-6.15,4.89-13.31,8.65-21.51,11.27-8.19,2.62-16.62,3.93-25.26,3.93-12.18,0-23.16-2.65-32.95-7.94-9.79-5.29-17.47-12.6-23.04-21.94-5.58-9.33-8.36-19.86-8.36-31.58s2.79-22.25,8.36-31.58c5.57-9.33,13.29-16.64,23.13-21.93,9.84-5.29,20.91-7.94,33.2-7.94,10.01,0,19.12,1.65,27.31,4.95,8.19,3.3,15.08,8.14,20.65,14.51l-14,13.66c-9.11-9.1-20.09-13.66-32.95-13.66-8.42,0-15.9,1.77-22.45,5.29-6.55,3.53-11.67,8.48-15.36,14.85-3.7,6.37-5.55,13.66-5.55,21.85s1.85,15.14,5.55,21.51c3.7,6.37,8.82,11.38,15.36,15.02,6.54,3.64,13.97,5.46,22.28,5.46,9.33,0,17.52-2.05,24.58-6.15v-37.21Z"/><path class="cls-5" d="M483.26,305.93c-7.4-3.98-13.17-9.53-17.33-16.64-4.16-7.11-6.23-15.16-6.23-24.15s2.07-17.01,6.23-24.07c4.15-7.05,9.93-12.57,17.33-16.56,7.4-3.98,15.7-5.97,24.92-5.97s17.69,1.99,25.09,5.97c7.4,3.98,13.17,9.5,17.33,16.56,4.15,7.06,6.23,15.08,6.23,24.07s-2.08,17.04-6.23,24.15c-4.16,7.11-9.93,12.66-17.33,16.64-7.4,3.98-15.76,5.97-25.09,5.97s-17.53-1.99-24.92-5.97Zm44.38-20.14c5.12-5.23,7.68-12.12,7.68-20.65s-2.56-15.42-7.68-20.65c-5.12-5.23-11.61-7.85-19.46-7.85s-14.31,2.62-19.37,7.85c-5.06,5.24-7.6,12.12-7.6,20.65s2.53,15.42,7.6,20.65c5.06,5.24,11.52,7.85,19.37,7.85s14.34-2.62,19.46-7.85Z"/><path class="cls-5" d="M593.36,305.93c-7.4-3.98-13.17-9.53-17.33-16.64-4.16-7.11-6.23-15.16-6.23-24.15s2.07-17.01,6.23-24.07c4.15-7.05,9.93-12.57,17.33-16.56,7.4-3.98,15.7-5.97,24.92-5.97s17.69,1.99,25.09,5.97c7.4,3.98,13.17,9.5,17.33,16.56,4.15,7.06,6.23,15.08,6.23,24.07s-2.08,17.04-6.23,24.15c-4.16,7.11-9.93,12.66-17.33,16.64-7.4,3.98-15.76,5.97-25.09,5.97s-17.53-1.99-24.92-5.97Zm44.38-20.14c5.12-5.23,7.68-12.12,7.68-20.65s-2.56-15.42-7.68-20.65c-5.12-5.23-11.61-7.85-19.46-7.85s-14.31,2.62-19.37,7.85c-5.07,5.24-7.6,12.12-7.6,20.65s2.53,15.42,7.6,20.65c5.06,5.24,11.52,7.85,19.37,7.85s14.34-2.62,19.46-7.85Z"/><path class="cls-5" d="M777.88,219.56v77.33c0,32.09-16.39,48.14-49.16,48.14-8.76,0-17.07-1.11-24.92-3.33-7.85-2.22-14.34-5.44-19.46-9.64l9.56-16.05c3.98,3.3,9.02,5.95,15.11,7.94,6.09,1.99,12.26,2.99,18.52,2.99,10.01,0,17.35-2.28,22.02-6.83,4.67-4.55,7-11.49,7-20.83v-4.78c-3.64,3.98-8.08,7-13.31,9.05-5.24,2.05-10.98,3.07-17.24,3.07-8.65,0-16.47-1.85-23.47-5.55-7-3.7-12.52-8.9-16.56-15.62-4.04-6.71-6.06-14.39-6.06-23.04s2.02-16.3,6.06-22.96c4.04-6.66,9.56-11.8,16.56-15.45,7-3.64,14.82-5.46,23.47-5.46,6.6,0,12.6,1.08,18.01,3.24,5.4,2.16,9.93,5.46,13.57,9.9v-12.12h20.31Zm-28.76,61.71c5.18-4.84,7.77-11.12,7.77-18.86s-2.59-13.83-7.77-18.61c-5.18-4.78-11.81-7.17-19.89-7.17s-14.88,2.39-20.06,7.17c-5.18,4.78-7.77,10.98-7.77,18.61s2.59,14.03,7.77,18.86c5.18,4.84,11.86,7.25,20.06,7.25s14.71-2.42,19.89-7.25Z"/><path class="cls-5" d="M805.87,184.05h21.34v126.66h-21.34v-126.66Z"/><path class="cls-5" d="M940.55,271.96h-71.52c1.25,6.72,4.52,12.03,9.82,15.96,5.29,3.93,11.86,5.89,19.72,5.89,10.01,0,18.26-3.3,24.75-9.9l11.44,13.14c-4.1,4.89-9.28,8.59-15.53,11.1-6.26,2.5-13.31,3.76-21.17,3.76-10.02,0-18.84-1.99-26.46-5.97-7.63-3.98-13.51-9.53-17.67-16.64-4.16-7.11-6.23-15.16-6.23-24.15s2.02-16.87,6.06-23.98c4.04-7.11,9.64-12.66,16.81-16.64,7.17-3.98,15.25-5.97,24.24-5.97s16.81,1.96,23.81,5.89c7,3.93,12.46,9.45,16.39,16.56,3.93,7.11,5.89,15.34,5.89,24.67,0,1.48-.11,3.58-.34,6.32Zm-63.07-30.3c-4.72,4.04-7.6,9.42-8.62,16.13h51.72c-.91-6.6-3.7-11.95-8.36-16.05-4.67-4.1-10.47-6.15-17.41-6.15s-12.61,2.02-17.33,6.06Z"/><path class="cls-5" d="M1086.76,196.34c7.68,3.41,13.57,8.31,17.67,14.68,4.1,6.37,6.15,13.94,6.15,22.7s-2.05,16.19-6.15,22.62c-4.1,6.43-9.99,11.35-17.67,14.77-7.68,3.41-16.7,5.12-27.06,5.12h-26.97v34.48h-22.19v-119.49h49.16c10.35,0,19.37,1.71,27.06,5.12Zm-6.06,54.97c5.01-4.1,7.51-9.96,7.51-17.58s-2.5-13.49-7.51-17.58c-5.01-4.1-12.35-6.15-22.02-6.15h-25.95v47.45h25.95c9.67,0,17.01-2.05,22.02-6.15Z"/><path class="cls-5" d="M1132.42,184.05h21.34v126.66h-21.34v-126.66Z"/><path class="cls-5" d="M1247.38,228.18c7.11,6.43,10.67,16.13,10.67,29.1v53.43h-20.14v-11.1c-2.62,3.98-6.35,7.03-11.18,9.13-4.84,2.1-10.67,3.16-17.5,3.16s-12.8-1.17-17.92-3.5c-5.12-2.33-9.08-5.57-11.86-9.73-2.79-4.15-4.18-8.85-4.18-14.08,0-8.19,3.04-14.77,9.13-19.72,6.09-4.95,15.67-7.43,28.76-7.43h23.56v-1.37c0-6.37-1.91-11.27-5.72-14.68-3.81-3.41-9.47-5.12-16.98-5.12-5.12,0-10.16,.8-15.11,2.39-4.95,1.6-9.13,3.81-12.55,6.66l-8.36-15.53c4.78-3.64,10.52-6.43,17.24-8.36,6.71-1.93,13.83-2.9,21.34-2.9,13.43,0,23.7,3.22,30.81,9.64Zm-19.46,64.52c4.15-2.45,7.08-5.95,8.79-10.5v-10.58h-22.02c-12.29,0-18.44,4.04-18.44,12.12,0,3.87,1.54,6.94,4.61,9.22,3.07,2.28,7.34,3.41,12.8,3.41s10.1-1.22,14.25-3.67Z"/><path class="cls-5" d="M1369.01,219.56l-42.67,98.49c-3.98,9.9-8.82,16.87-14.51,20.91-5.69,4.04-12.58,6.06-20.65,6.06-4.55,0-9.05-.74-13.49-2.22-4.44-1.48-8.08-3.53-10.92-6.15l8.54-15.7c2.05,1.93,4.46,3.47,7.25,4.61,2.79,1.14,5.6,1.71,8.45,1.71,3.76,0,6.86-.97,9.3-2.9,2.45-1.94,4.69-5.18,6.74-9.73l1.54-3.58-39.77-91.5h22.19l28.68,67.43,28.85-67.43h20.48Z"/></g><g><path class="cls-5" d="M361.03,150.61c-4.52,0-8.74-.98-12.65-2.96-3.91-1.97-7.32-4.62-10.22-7.95-2.91-3.33-5.17-7.07-6.78-11.24-1.62-4.17-2.42-8.48-2.42-12.94s.81-9.06,2.42-13.23c1.61-4.17,3.86-7.87,6.74-11.1,2.87-3.23,6.27-5.77,10.18-7.61,3.91-1.84,8.16-2.76,12.75-2.76,6.65,0,12.15,1.39,16.48,4.17,4.33,2.78,7.59,6.4,9.79,10.85l-6.69,4.65c-2-4.01-4.75-6.98-8.24-8.92-3.49-1.94-7.33-2.91-11.53-2.91-3.49,0-6.66,.74-9.5,2.23-2.84,1.49-5.28,3.51-7.32,6.06-2.04,2.55-3.59,5.44-4.65,8.67-1.07,3.23-1.6,6.59-1.6,10.08,0,3.68,.6,7.16,1.79,10.42,1.2,3.26,2.89,6.14,5.09,8.63,2.2,2.49,4.75,4.44,7.66,5.86,2.91,1.42,6.04,2.13,9.4,2.13,3.94,0,7.69-1,11.24-3,3.55-2,6.91-5.07,10.08-9.21v9.01c-6.2,7.37-13.54,11.05-22,11.05Zm20.93-28.2h-14.83v-6.59h22.19v34.31h-7.37v-27.72Z"/><path class="cls-5" d="M449.32,142.37v7.75h-46.71V81.31h45.84v7.75h-37.12v22.29h32.27v7.27h-32.27v23.74h37.99Z"/><path class="cls-5" d="M510.86,89.06h-23.74v61.06h-8.72v-61.06h-23.74v-7.75h56.21v7.75Z"/><path class="cls-5" d="M542.36,150.12V81.31h8.72v68.81h-8.72Z"/><path class="cls-5" d="M576.28,97.4v52.72h-8.72V81.31h7.37l42.06,53.79v-53.69h8.72v68.71h-7.95l-41.48-52.72Z"/><path class="cls-5" d="M694.61,150.61c-4.85,0-9.24-.97-13.18-2.91-3.94-1.94-7.35-4.57-10.22-7.9-2.88-3.33-5.09-7.08-6.64-11.24-1.55-4.17-2.33-8.45-2.33-12.84s.82-8.96,2.47-13.13c1.65-4.17,3.94-7.88,6.88-11.15,2.94-3.26,6.38-5.85,10.32-7.75,3.94-1.91,8.24-2.86,12.89-2.86s9.24,1,13.18,3c3.94,2,7.33,4.69,10.18,8.04,2.84,3.36,5.04,7.11,6.59,11.24,1.55,4.14,2.33,8.37,2.33,12.7,0,4.59-.81,8.96-2.42,13.13-1.62,4.17-3.89,7.88-6.83,11.15-2.94,3.26-6.38,5.83-10.32,7.71-3.94,1.87-8.24,2.81-12.89,2.81Zm-23.55-34.89c0,3.49,.57,6.87,1.7,10.13,1.13,3.26,2.73,6.15,4.8,8.67,2.07,2.52,4.56,4.52,7.46,6.01,2.91,1.49,6.14,2.23,9.69,2.23s6.98-.78,9.88-2.33c2.91-1.55,5.38-3.62,7.41-6.2,2.03-2.58,3.59-5.49,4.65-8.72,1.07-3.23,1.6-6.49,1.6-9.79,0-3.49-.57-6.85-1.7-10.08-1.13-3.23-2.75-6.12-4.85-8.67-2.1-2.55-4.59-4.55-7.46-6.01-2.88-1.45-6.06-2.18-9.55-2.18-3.68,0-6.98,.76-9.89,2.28-2.91,1.52-5.38,3.57-7.41,6.15-2.03,2.59-3.6,5.48-4.7,8.67-1.1,3.2-1.65,6.48-1.65,9.84Z"/><path class="cls-5" d="M747.92,97.4v52.72h-8.72V81.31h7.37l42.06,53.79v-53.69h8.72v68.71h-7.95l-41.48-52.72Z"/></g></g></g></svg>